<svg width="100%" viewBox="-85 -78 170 176" role="img" xmlns="http://www.w3.org/2000/svg">
  <title>Feito de Gente — ícone</title>

  <defs>
    <linearGradient id="fg" x1="0.3" y1="1" x2="0.6" y2="0">
      <stop offset="0%" stop-color="#F5B942"/>
      <stop offset="50%" stop-color="#E86030"/>
      <stop offset="100%" stop-color="#C83A18"/>
    </linearGradient>
    <linearGradient id="cg" x1="0" y1="0" x2="1" y2="0">
      <stop offset="0%" stop-color="#EAE0C0"/>
      <stop offset="50%" stop-color="#F8F2E0"/>
      <stop offset="100%" stop-color="#D5C99A"/>
    </linearGradient>
    <linearGradient id="lg1" x1="0" y1="0" x2="1" y2="1">
      <stop offset="0%" stop-color="#6BBF5A"/>
      <stop offset="100%" stop-color="#2E7828"/>
    </linearGradient>
    <linearGradient id="lg2" x1="1" y1="0" x2="0" y2="1">
      <stop offset="0%" stop-color="#6BBF5A"/>
      <stop offset="100%" stop-color="#2E7828"/>
    </linearGradient>
  </defs>

  <!-- Folha esquerda -->
  <path d="M-10,56 C-42,40 -74,18 -77,-12 C-79,-30 -64,-42 -46,-34 C-28,-24 -12,14 -10,56Z" fill="url(#lg1)" stroke="#1E6018" stroke-width="0.8"/>
  <path d="M-11,54 C-34,26 -54,2 -62,-24" stroke="#2A7020" stroke-width="0.6" fill="none" opacity="0.4"/>

  <!-- Folha direita -->
  <path d="M10,56 C42,40 74,18 77,-12 C79,-30 64,-42 46,-34 C28,-24 12,14 10,56Z" fill="url(#lg2)" stroke="#1E6018" stroke-width="0.8"/>
  <path d="M11,54 C34,26 54,2 62,-24" stroke="#2A7020" stroke-width="0.6" fill="none" opacity="0.4"/>

  <!-- Vela corpo -->
  <rect x="-14" y="-6" width="28" height="64" rx="4" fill="url(#cg)" stroke="#C2AF82" stroke-width="0.7"/>
  <ellipse cx="0" cy="-6" rx="14" ry="3" fill="#F5EDD5" stroke="#C2AF82" stroke-width="0.5"/>
  <!-- brilho -->
  <rect x="-8" y="2" width="4" height="44" rx="2" fill="#fff" opacity="0.18"/>

  <!-- Pavio -->
  <line x1="0" y1="-9" x2="0" y2="-18" stroke="#3C2810" stroke-width="1.6" stroke-linecap="round"/>

  <!-- Chama -->
  <path d="M0,-70 C12,-52 18,-36 15,-18 C13,-6 6,3 0,7 C-6,3 -13,-6 -15,-18 C-18,-36 -12,-52 0,-70Z" fill="url(#fg)"/>
  <path d="M0,-56 C6,-42 9,-30 7,-15 C5,-5 2,2 0,5 C-2,2 -5,-5 -7,-15 C-9,-30 -6,-42 0,-56Z" fill="#FFE88A" opacity="0.6"/>

  <!-- Linha base tracejada -->
  <path d="M-76,64 C-50,58 -25,60 0,58 C25,60 50,58 76,64" stroke="#7A4F20" stroke-width="1.8" fill="none" stroke-linecap="round" stroke-dasharray="4,3"/>

  <!-- Arco de acolhimento -->
  <path d="M-76,72 C-52,86 -28,90 0,88 C28,90 52,86 76,72" stroke="#C8904A" stroke-width="1.4" fill="none" stroke-linecap="round" opacity="0.45"/>
</svg>
